<?xml version="1.0" encoding="UTF-8"?><svg id="Calque_2" xmlns="http://www.w3.org/2000/svg" viewBox="0 0 156.48 156.36"><defs><style>.cls-1{fill:#f77e60;}</style></defs><g id="Calque_1-2"><path class="cls-1" d="m26.12,147.31c-6.56,0-13.05-.51-18.82-1.84-.63-.15-1.1-.68-1.16-1.33l-.68-7.68-5.09-5.79c-.43-.49-.49-1.2-.16-1.76,5.34-8.99,14.67-18.92,27.75-29.52,9.7-7.86,17.98-13.18,18.06-13.23,76.22-45.94,107.84-16.91,109.95-14.83.14.13.26.28.34.44.12.24.18.51.17.78.04,3.25-1.06,45.92-86.59,69.27-1.21.3-22.83,5.49-43.77,5.49Zm-17.09-4.53c23.56,4.92,59.74-3.78,60.11-3.87,24.46-6.68,57.26-19.4,74.37-42.01,8.96-11.84,9.88-21.38,9.96-23.81-1.82-1.62-9.36-7.54-24.1-9.23-15.55-1.77-42.36,1.09-81.77,24.84-.28.18-31.55,20.36-44.25,40.8l4.69,5.33c.21.24.34.54.37.86l.63,7.08Z"/><path class="cls-1" d="m141.19,101.01c-.81-.19-1.61.32-1.8,1.12-3.3,14.33-11.46,27.33-22.98,36.61-11.69,9.42-26.41,14.61-41.45,14.61-12.08,0-23.91-3.29-34.19-9.52-.71-.43-1.63-.2-2.06.51-.43.71-.2,1.63.51,2.06,10.75,6.51,23.12,9.95,35.75,9.95,15.73,0,31.12-5.42,43.34-15.27,12.04-9.7,20.57-23.29,24.02-38.27.19-.81-.32-1.61-1.12-1.8Z"/><path class="cls-1" d="m46.31,34.16c1.45-.44,2.81-.72,4.42-.72,2.4,0,2.93.85,3.81,2.25.83,1.32,1.96,3.14,4.9,3.72.89.18,1.65.18,2.32.08-5.82,10.47-6.03,23.37-6.03,25.11,0,2.57.2,5.15.59,7.66.12.74.75,1.27,1.48,1.27.08,0,.16,0,.23-.02.82-.13,1.38-.9,1.25-1.71-.37-2.36-.56-4.78-.56-7.19,0-7.19,2.09-21.39,9.86-29.37.28-.04.57-.06.91-.05,1.94.1,3.12,1.01,4.49,2.06,1.73,1.33,3.7,2.84,7.03,2.17,2.07-.41,3.73-1.35,5.19-2.17,1.96-1.1,2.95-1.58,3.98-1.12-1.83,4.11-3.7,9.97-3.36,16.34.27,5.24,1.64,10.21,4.05,14.79.27.51.79.8,1.33.8.24,0,.47-.06.7-.17.73-.39,1.01-1.29.63-2.03-2.21-4.19-3.45-8.75-3.7-13.55-.27-5.09,1.03-9.87,2.5-13.52.28.69.54,1.46.8,2.26,1.1,3.32,2.66,8.08,8,8.08,1,0,2.13-.17,3.42-.54,1.8-.52,3.15-1.64,4.01-3.33,1.7-3.31,1.03-8.2.29-11.4,3.19,1.32,7.92,2.75,10.65,1.04.98-.61,2.13-1.88,2.04-4.46-.33-9.35-14.22-15.89-21.52-18.04l-.7-.21c-8.92-2.67-36.05-10.8-71.01,24.05,0,0,0,0,0,0-14.27,13.07-22.46,31.65-22.46,50.99,0,9.82,2.02,19.3,6,28.2.25.56.8.89,1.37.89.2,0,.41-.04.61-.13.76-.34,1.09-1.23.76-1.98-3.81-8.51-5.74-17.59-5.74-26.98,0-18.38,7.73-36.04,21.22-48.52,3.87-.62,6.8-1.37,9.19-2.11-10.97,11.32-17.14,26.4-17.14,42.38,0,.83.67,1.5,1.5,1.5s1.5-.67,1.5-1.5c0-17.43,7.73-33.74,21.2-44.81Zm49.26-19.92c.08.17.19.32.34.45.03.03,3.16,2.96,1.88,4.54-.17.21-.26.25-.26.25-.37.03-1.37-.87-1.92-1.34-1.12-.97-2.38-2.06-3.91-2.28-2.6-.37-3.19,1.97-3.44,2.97-.35,1.39-.52,1.65-1.46,1.64-.98,0-1.3-.45-1.96-2.09-.53-1.34-1.43-3.57-4.09-3.28-2.27.25-3.06,1.69-3.52,2.55-.43.8-.54.99-1.64.95-.61-.02-.74-.2-1.19-.93-1.42-2.34-3.25-3.2-8.35-.71-.74.36-1.05,1.26-.69,2.01.36.75,1.26,1.05,2.01.69,3.65-1.78,3.98-1.24,4.47-.43.52.85,1.39,2.29,3.64,2.37,2.96.12,3.85-1.53,4.39-2.51.38-.71.5-.92,1.22-1,.28-.03.39-.04.97,1.41.59,1.48,1.58,3.96,4.73,3.97h.03c3.36,0,4.03-2.63,4.35-3.9.06-.22.13-.52.2-.72.65.15,1.51.9,2.27,1.56,1.25,1.09,2.55,2.22,4.15,2.06.88-.08,1.67-.54,2.33-1.36,1.41-1.74,1.14-3.73.28-5.44,7.37,2.45,17.89,8.23,18.12,14.88.05,1.38-.44,1.69-.63,1.81-1.84,1.16-7.36-.8-10.68-2.56-.55-.29-1.21-.21-1.68.19-.47.4-.64,1.05-.44,1.63.8,2.28,2.5,8.93.78,12.28-.48.93-1.19,1.53-2.18,1.81-5.11,1.5-6.22-1.02-7.73-5.59-.67-2.03-1.37-4.12-2.76-5.48-.01-.02-.03-.03-.04-.04-.03-.03-.05-.06-.08-.09-1.27-1.16-2.49-1.58-3.65-1.58-1.68,0-3.25.88-4.7,1.7-1.33.75-2.7,1.52-4.3,1.84-2,.4-3.1-.44-4.62-1.61-1.47-1.13-3.3-2.53-6.17-2.67-3.2-.16-4.84,1.53-6.04,2.77-1.17,1.2-1.82,1.87-3.58,1.52-1.67-.33-2.2-1.19-2.94-2.37-.96-1.54-2.28-3.66-6.35-3.66-2.08,0-3.79.37-5.55.93-.02,0-.04.01-.06.02-.85.27-1.72.59-2.65.93-2.19.8-4.76,1.73-8.43,2.57,28.79-26.66,51.38-23.36,61.54-20.65Z"/><path class="cls-1" d="m47.4,46.23c-.74-.37-1.64-.08-2.02.66-3.89,7.63-5.94,16.25-5.94,24.92,0,6.2,1.02,12.28,3.03,18.08.22.62.8,1.01,1.42,1.01.16,0,.33-.03.49-.08.78-.27,1.2-1.13.93-1.91-1.9-5.48-2.86-11.23-2.86-17.09,0-8.2,1.94-16.35,5.61-23.56.38-.74.08-1.64-.66-2.02Z"/><path class="cls-1" d="m75.16,42.88c-.79-.26-1.63.17-1.89.96-1.32,4.03-1.99,8.25-1.99,12.55,0,5.8,1.19,11.37,3.55,16.56.25.55.8.88,1.37.88.21,0,.42-.04.62-.13.75-.34,1.09-1.23.75-1.99-2.18-4.8-3.28-9.95-3.28-15.32,0-3.98.62-7.89,1.84-11.62.26-.79-.17-1.63-.96-1.89Z"/><path class="cls-1" d="m109.42,47.4c-1.32.5-2.58,2.01-2.17,4.79.42,2.83,1.39,4.77,2.79,5.62.51.31,1.07.46,1.65.46.37,0,.74-.06,1.1-.19.6-.21,1.41-.74,1.86-2.04.69-1.98.24-5.08-1.02-7.05-.96-1.5-2.69-2.16-4.21-1.59Zm2.3,7.87c-.07.01-.09,0-.14-.03-.35-.21-1.02-1.18-1.37-3.49-.15-1.03.1-1.48.26-1.54.02,0,.04-.01.07-.01.14,0,.37.11.56.41,1.04,1.62,1,4.14.62,4.67Z"/><path class="cls-1" d="m122.96,43.98c.82,1.4,1.87,1.89,2.77,1.89.39,0,.75-.09,1.06-.23,1.57-.73,2.59-3.15,1.59-5.94-.63-1.76-1.54-2.73-2.71-2.86-.96-.12-1.88.39-2.54,1.39-.93,1.42-1.29,3.85-.18,5.75Zm1.97-3.72c.15-.46.35-.75.47-.88.12.12.36.44.62,1.17.39,1.1.25,2.01-.02,2.5-.14.25-.27.33-.29.33-.05,0-.3-.13-.61-.66-.46-.78-.4-1.79-.18-2.46Z"/><path class="cls-1" d="m119.53,10.27c.17.03.35.04.52.04.78,0,1.52-.28,2.13-.82.48-.42,1.03-1.21.96-2.59-.11-2.1-1.68-4.8-3.59-6.15-1.46-1.03-3.3-.99-4.5.1-1.04.96-1.64,2.84-.22,5.26,1.45,2.47,3.08,3.91,4.69,4.16Zm-2.44-7.21s.11-.06.21-.06c.14,0,.32.05.52.19,1.57,1.12,2.48,3.46,2.32,4.09-.05.04-.09.03-.14.02-.4-.06-1.39-.71-2.58-2.73-.53-.9-.46-1.42-.34-1.52Z"/><path class="cls-1" d="m57.73,123.17l1.73,4.12-19.86,8.32-11.09-26.48,19.33-8.09,1.73,4.12-14.41,6.04,2.88,6.89,12.79-5.35,1.69,4.05-12.79,5.35,3.06,7.3,14.94-6.26Z"/><path class="cls-1" d="m89.61,109.87l-17.05,7.14-.06,9.3-6.53,2.73,1.07-40.51,6.23-2.61,29.66,27.65-6.62,2.77-6.71-6.46Zm-4.17-4.09l-12.67-12.21-.14,17.57,12.81-5.36Z"/><path class="cls-1" d="m116.88,72.12l11.09,26.48-4.92,2.06-4.75-11.35-13.7,5.73,4.75,11.35-4.92,2.06-11.09-26.48,4.92-2.06,4.58,10.93,13.7-5.73-4.58-10.93,4.92-2.06Z"/></g></svg>